<?xml version="1.0" encoding="UTF-8"?>
<svg id="Layer_2" data-name="Layer 2" xmlns="http://www.w3.org/2000/svg" viewBox="0 0 131.6 145.57">
  <defs>
  <style>
    .cls-1 { fill: #351b01; } /* Light Mode Color */
    @media (prefers-color-scheme: dark) {
      .cls-1 { fill: #FFF; } /* Dark Mode Color */
    }
  </style>
  </defs>
  <g id="Layer_1-2" data-name="Layer 1">
    <g>
      <g>
        <g>
          <path class="cls-1" d="M32.89,32.88c-.1-.87-.15-1.88-.15-3.05V12.28c0-6.45-5.27-11.02-11.73-11.02-4.17,0-7.79,2.2-9.84,5.27C10.39,1.89,6.93.08,3.54.08h-1.34v1.42c2.36,0,3.54,1.89,3.54,7.63v20.78c0,5.43-.87,7.48-5.75,7.48v1.42h17.24v-1.42c-4.88,0-5.75-2.05-5.75-7.48V8.34c1.73-3.46,5.35-5.9,9.52-5.9,3.78-.16,5.9,2.28,5.9,7.32v20.31c0,.98.17,1.93.46,2.81,1.15,3.44,4.31,5.93,7.56,5.93h1.26v-1.34c-1.82,0-2.94-1.2-3.31-4.59Z"/>
          <path class="cls-1" d="M118.93,0v1.5c4.88,0,4.57,2.75,2.83,7.48l-9.6,28.02-9.52-28.02c-1.73-4.49-2.12-7.48,2.83-7.48V0h-17.15v1.5c4.01,0,5.98,1.65,8.19,7.48l1.97,5.82-7.56,22.2-9.52-28.02c-1.73-4.49-2.13-7.48,2.83-7.48V0h-17.16v1.5c4.01,0,5.98,1.65,8.19,7.48l10.15,29.75h6.06l7.63-22.12,7.56,22.12h6.14l10.15-29.75c1.97-5.12,3.7-7.48,8.66-7.48V0h-12.67Z"/>
          <path class="cls-1" d="M66.74,25.97c-1.38,4.18-3.41,7.11-5.71,8.89-1.39,1.07-2.86,1.73-4.36,1.99-2.77.49-5.58-.39-7.89-2.48-.49-.44-.96-.94-1.39-1.49-1.35-1.69-2.44-3.89-3.12-6.56,0-.02,0-.03-.01-.05-.48-1.91-.75-4.06-.75-6.44,0-6.77,1.73-14.01,6.3-17,2.28-1.57,5.67-2.05,8.11-.71,2.6,1.5,3.94,4.64,3.94,8.03,0,9.92-7.8,10.34-12.74,13.26-.56.33-1.12.68-1.64,1.07-.42.31-.81.67-1.21,1.01.32-.28,1.34-.73,1.72-.9,1.17-.53,1.76-.88,3.08-1.44.85-.36,1.53-.66,2.38-.99,1.84-.73,3.71-1.38,5.54-2.15s3.5-1.56,5.03-2.69c1.37-1.02,2.56-2.33,3.15-3.96.52-1.43.5-2.91.27-4.39C66.59,3.38,59.98.16,55.1.16c-10.7,0-17.32,9.13-17.32,19.36,0,2.96.51,5.99,1.54,8.74.04.11.08.21.13.32.61,1.54,1.38,3,2.32,4.29.38.54.8,1.04,1.24,1.52,2.49,2.68,5.88,4.41,10.2,4.41,1.7,0,3.27-.28,4.7-.8,1.56-.56,2.96-1.4,4.2-2.44,2.72-2.31,4.65-5.61,5.74-9.19l-1.1-.39Z"/>
        </g>
        <path class="cls-1" d="M105.83,98.1c-2.85,0-5.21,2.36-5.21,5.21s2.36,5.12,5.21,5.12,5.12-2.26,5.12-5.12-2.26-5.21-5.12-5.21Z"/>
        <g>
          <path class="cls-1" d="M84.26,107.15c-1,.39-2.05.69-3.13.91,1-.38,2.05-.69,3.13-.91Z"/>
          <path class="cls-1" d="M59.49,101.73v.41c0,2.37-.39,3.03-2.17,4.58-.89.77-2.61,1.03-3.74,1.37-1.27.38-2.66.32-3.97.46-2.9.31-5.91.86-8.43,2.42-1.78,1.11-3.23,2.7-4.41,4.45-.61.91-1.15,1.86-1.47,2.9-.44,1.43-.43,2.96-.43,4.45.02,4.63.05,9.26.07,13.9.01,2.33.25,5.08,2.25,6.28,1.05.63,2.33.65,3.55.65,0,.46,0,.92,0,1.39-5.77.02-11.54.04-17.31.06v-1.51c.38-.03.76-.06,1.14-.1,1.07-.1,2.2-.26,3.05-.92,1.44-1.12,1.56-3.22,1.56-5.05-.01-8.02-.03-16.04-.04-24.05,0-1.26-.01-2.55-.53-3.7-.52-1.14-1.68-2.09-2.93-1.94,0-.51-.02-1.01-.03-1.52,2.57-.17,5.19.87,6.95,2.74,1.76,1.88,2.62,4.56,2.28,7.11.06-.41.7-1.07.94-1.41.35-.49.71-.97,1.08-1.43.75-.93,1.56-1.81,2.42-2.65,2.88-2.8,13.93-4.05,12.9-8.71v-.3c.08-1.95,1.68-3.5,3.63-3.5s3.62,1.63,3.62,3.62Z"/>
          <path class="cls-1" d="M77,69.67h-.49c7.18-.79,12.89-6.99,12.89-14.46,0-4.79-2.4-9.07-6.06-11.68-.35-.25-.7-.48-1.07-.7-2.13-1.26-4.6-1.98-7.23-1.98h-13.19l-.13.07c-1.57.85-3.18,1.67-4.95,1.96-.75.13-1.49.16-2.21.13-1.96-.08-3.82-.66-5.65-1.42-.56-.24-1.12-.48-1.67-.74h-2.21v1.87c6.2,0,7.28,2.56,7.28,9.25l.12,42.11c2.75-.38,4.55-.78,7.06-1.57v-22.14h5.9c12.69,0,24.01,3.15,24.1,18.3.1,17.71-17.32,23.42-26.66,11.02l-1.18.89c3.54,4.82,9.25,7.87,15.64,7.87,1.31,0,2.59-.13,3.83-.38,1-.38,2.05-.69,3.13-.91,7.36-2.82,12.55-10,12.42-18.4-.16-10.64-9.04-19.08-19.68-19.08ZM59.49,68.88v-21.15c0-2.73,2.1-5.03,4.75-5.37.22-.03.44-.04.66-.04h4.43c.24,0,.46,0,.69.01h0c3.33.1,5.95.95,7.89,2.48.45.35.86.73,1.23,1.15,2.01,2.24,2.98,5.47,2.98,9.54,0,8.26-4.13,13.38-12.79,13.38h-9.84Z"/>
          <path class="cls-1" d="M12.55,132.44c0,2.81-.01,5.65.54,8.4.17.85.44,1.77,1.15,2.27.49.35,1.11.44,1.72.48v1.47c-1.29-.03-2.57-.15-3.76-.64-2.47-1-4.12-3.46-4.84-6.02-.72-2.57-.65-5.29-.59-7.95.15-6.6.22-13.21-.03-19.81-.05-1.2-.11-2.45-.63-3.54-.51-1.1-1.58-2.02-2.79-1.99,0-.45,0-.91-.01-1.37,3.91-.43,7.33-3.7,7.93-7.58.44,0,.89,0,1.33,0,.01,2.51.02,5.02.03,7.52,2.82.01,5.65.02,8.47.03v1.39c-2.82.01-5.64.02-8.46.03-.02,9.1-.04,18.2-.06,27.3Z"/>
          <path class="cls-1" d="M63.19,136.13v-30.3h-1.42c0,3.62-4.25,4.64-7.87,4.64v1.42c2.28,0,3.46,1.81,3.46,7.56v16.69c0,5.43-.79,7.48-5.75,7.48v1.5h17.32v-1.5c-4.96,0-5.75-2.05-5.75-7.48Z"/>
          <path class="cls-1" d="M97.51,136.52v-18.34c0-4.8-1.02-8.74-5.75-10.63-2.34-.89-4.99-.91-7.5-.41-1.08.21-2.13.52-3.13.91-3.09,1.18-5.62,3.03-6.52,4.78.31.31.39.47.71.79,2.36-4.49,12.67-6.22,15.35-1.02.87,1.73,1.1,4.33,1.1,8.89v15.35c0,1.65.16,2.83-1.97,4.72-4.8,4.33-12.04,2.91-11.96-4.96.16-7.16,9.76-13.54,11.96-19.52l-1.1-.31c-2.44,7.4-16.53,10-16.61,20.15,0,10.23,14.32,10.94,19.68,4.33.24,2.36,2.44,4.33,4.96,4.33h4.33v-1.42c-2.36,0-3.54-1.89-3.54-7.63Z"/>
        </g>
      </g>
      <path class="cls-1" d="M87.19,80.49c-6.9,2.75-12.97,7.12-19.56,10.48-3.95,2.03-8.18,3.57-12.55,4.4-11.68,2.37-24.36-1.28-32.75-9.8-4.21-4.17-7.52-9.32-9.12-15.05-5.34-18.61,10.74-34.01,25.89-41.82,0,0-.92.63-.92.63-.51.34-1.32.89-1.84,1.24-4.1,2.45-8,5.29-11.48,8.57-8.67,8.01-14.48,19.29-10.94,31.18,3.28,11.13,12.71,20.17,23.8,23.4,8.38,2.49,17.5,1.57,25.52-1.77,2.7-1.13,5.3-2.46,7.88-3.86,5.2-2.81,10.39-5.89,16.08-7.6h0Z"/>
      <path class="cls-1" d="M99.31,141.12c12.59-5.99,25.6-16.36,28.87-30.51,1.29-5.91.43-12.28-2.67-17.51-4.2-7.06-11.54-11.95-19.51-13.8-2.01-.49-4.07-.8-6.15-.9-2.06-.04-4.2.11-6.26.28,0,0-.02-.12-.02-.12,18.8-3.75,39.88,11.17,35.88,31.52-2.16,10.73-10.09,19.31-18.96,25.23-3.5,2.33-7.24,4.31-11.13,5.91l-.04-.11h0Z"/>
    </g>
  </g>
</svg>