<?xml version="1.0" encoding="UTF-8"?>
<svg id="Layer_2" data-name="Layer 2" xmlns="http://www.w3.org/2000/svg" viewBox="0 0 190 190">
  <defs>
    <style>
/* Light Mode Color */
      .cls-1 {
        fill: #fff;
      }
      .cls-2 {
        fill: #351b01;
      }
/* Dark Mode Color */
  @media (prefers-color-scheme: dark) {
      .cls-1 { fill: #351B01; } 
 .cls-2 {
        fill: #FFF;
      }

    }

    </style>
  </defs>
  <g id="Layer_1-2" data-name="Layer 1">
    <circle class="cls-2" cx="95" cy="95" r="95"/>
    <g>
      <g>
        <g>
          <path class="cls-1" d="M64.99,59.61c-.09-.79-.14-1.71-.14-2.78v-16c0-5.89-4.81-10.05-10.69-10.05-3.8,0-7.11,2.01-8.97,4.81-.72-4.23-3.88-5.89-6.96-5.89h-1.22v1.29c2.15,0,3.23,1.72,3.23,6.96v18.95c0,4.95-.79,6.82-5.24,6.82v1.29h15.72v-1.29c-4.45,0-5.24-1.87-5.24-6.82v-19.67c1.58-3.16,4.88-5.38,8.68-5.38,3.44-.14,5.38,2.08,5.38,6.67v18.52c0,.89.15,1.76.42,2.56,1.05,3.13,3.93,5.4,6.9,5.4h1.15v-1.22c-1.66,0-2.68-1.09-3.02-4.18Z"/>
          <path class="cls-1" d="M143.44,29.63v1.36c4.45,0,4.16,2.51,2.58,6.82l-8.76,25.55-8.68-25.55c-1.58-4.09-1.93-6.82,2.58-6.82v-1.36h-15.64v1.36c3.66,0,5.45,1.51,7.46,6.82l1.79,5.31-6.89,20.24-8.68-25.55c-1.58-4.09-1.94-6.82,2.58-6.82v-1.36h-15.65v1.36c3.66,0,5.45,1.51,7.46,6.82l9.26,27.13h5.53l6.96-20.17,6.89,20.17h5.6l9.26-27.13c1.79-4.67,3.37-6.82,7.89-6.82v-1.36h-11.56Z"/>
          <path class="cls-1" d="M95.86,53.31c-1.26,3.81-3.11,6.48-5.21,8.1-1.26.98-2.61,1.58-3.97,1.81-2.53.44-5.09-.36-7.19-2.26-.45-.4-.87-.85-1.27-1.36-1.23-1.54-2.22-3.55-2.84-5.98,0-.01,0-.03-.01-.04-.44-1.74-.68-3.7-.68-5.87,0-6.17,1.58-12.78,5.74-15.5,2.08-1.44,5.17-1.87,7.39-.65,2.37,1.36,3.59,4.23,3.59,7.32,0,9.04-7.11,9.43-11.62,12.09-.51.3-1.02.62-1.5.98-.39.29-.74.61-1.11.92.29-.25,1.22-.66,1.57-.82,1.06-.48,1.61-.8,2.8-1.31.77-.33,1.4-.6,2.17-.91,1.68-.67,3.38-1.26,5.05-1.96s3.19-1.42,4.59-2.46c1.25-.93,2.33-2.12,2.87-3.61.47-1.3.46-2.65.25-4.01-.79-5.1-6.82-8.04-11.27-8.04-9.76,0-15.79,8.33-15.79,17.66,0,2.69.47,5.46,1.41,7.97.04.1.08.19.11.29.55,1.41,1.26,2.73,2.11,3.92.35.49.73.95,1.13,1.39,2.27,2.45,5.36,4.02,9.3,4.02,1.55,0,2.98-.26,4.28-.73,1.42-.51,2.7-1.28,3.83-2.23,2.48-2.1,4.24-5.12,5.24-8.38l-1-.36Z"/>
        </g>
        <path class="cls-1" d="M131.5,119.08c-2.6,0-4.75,2.15-4.75,4.75s2.15,4.67,4.75,4.67,4.67-2.06,4.67-4.67-2.06-4.75-4.67-4.75Z"/>
        <g>
          <path class="cls-1" d="M111.83,127.33c-.92.35-1.87.63-2.85.83.91-.35,1.87-.63,2.85-.83Z"/>
          <path class="cls-1" d="M89.25,122.39v.37c0,2.16-.36,2.76-1.98,4.18-.81.7-2.38.94-3.41,1.25-1.16.34-2.43.29-3.62.42-2.65.28-5.39.79-7.68,2.21-1.63,1.02-2.95,2.47-4.02,4.06-.56.83-1.05,1.7-1.34,2.65-.4,1.31-.39,2.69-.39,4.06.02,4.22.05,8.45.07,12.67.01,2.12.23,4.63,2.05,5.73.95.57,2.12.59,3.23.6,0,.42,0,.84,0,1.27-5.26.02-10.53.03-15.79.05v-1.38c.35-.03.69-.06,1.04-.09.98-.09,2.01-.24,2.78-.84,1.31-1.02,1.42-2.94,1.42-4.6-.01-7.31-.03-14.62-.04-21.93,0-1.14-.01-2.33-.48-3.37-.47-1.04-1.54-1.91-2.67-1.77,0-.46-.01-.92-.03-1.39,2.34-.15,4.73.79,6.34,2.5,1.6,1.71,2.39,4.16,2.08,6.48.05-.38.64-.98.86-1.29.32-.44.65-.88.99-1.31.69-.85,1.42-1.65,2.2-2.42,2.62-2.55,12.7-3.69,11.77-7.94v-.28c.07-1.78,1.53-3.19,3.31-3.19s3.31,1.48,3.31,3.31Z"/>
          <path class="cls-1" d="M105.21,93.16h-.44c6.55-.72,11.75-6.37,11.75-13.19,0-4.37-2.19-8.27-5.53-10.65-.32-.23-.64-.44-.98-.64-1.94-1.15-4.2-1.81-6.6-1.81h-12.03l-.12.06c-1.43.77-2.9,1.53-4.51,1.79-.69.11-1.36.15-2.02.12-1.79-.07-3.48-.6-5.15-1.3-.51-.22-1.02-.44-1.53-.68h-2.01v1.7c5.65,0,6.64,2.33,6.64,8.43l.11,38.4c2.51-.35,4.15-.71,6.44-1.44v-20.19h5.38c11.57,0,21.89,2.87,21.98,16.69.09,16.15-15.79,21.35-24.31,10.05l-1.08.81c3.23,4.4,8.43,7.18,14.26,7.18,1.19,0,2.36-.12,3.49-.34.91-.35,1.87-.63,2.85-.83,6.71-2.57,11.44-9.11,11.33-16.78-.14-9.7-8.24-17.4-17.94-17.4ZM89.25,92.44v-19.29c0-2.49,1.92-4.59,4.33-4.89.2-.03.4-.04.6-.04h4.04c.22,0,.42,0,.63.01h0c3.04.09,5.42.87,7.19,2.26.41.32.78.67,1.12,1.05,1.83,2.05,2.72,4.99,2.72,8.69,0,7.54-3.77,12.2-11.66,12.2h-8.97Z"/>
          <path class="cls-1" d="M46.44,150.39c0,2.57-.01,5.15.49,7.66.15.78.4,1.61,1.04,2.07.44.32,1.01.41,1.57.44v1.34c-1.17-.03-2.35-.14-3.43-.58-2.25-.92-3.76-3.15-4.42-5.49-.66-2.34-.6-4.82-.54-7.25.14-6.02.2-12.05-.03-18.07-.04-1.1-.1-2.23-.57-3.23-.47-1-1.44-1.84-2.54-1.82,0-.41,0-.83-.01-1.25,3.56-.39,6.68-3.37,7.23-6.91.41,0,.81,0,1.21,0,.01,2.29.02,4.58.03,6.86,2.57.01,5.15.02,7.72.03v1.26c-2.57.01-5.15.02-7.72.03-.02,8.3-.04,16.6-.05,24.9Z"/>
          <path class="cls-1" d="M92.62,153.76v-27.63h-1.29c0,3.3-3.88,4.23-7.18,4.23v1.29c2.08,0,3.16,1.65,3.16,6.89v15.22c0,4.95-.72,6.82-5.24,6.82v1.36h15.79v-1.36c-4.52,0-5.24-1.87-5.24-6.82Z"/>
          <path class="cls-1" d="M123.91,154.12v-16.72c0-4.38-.93-7.97-5.24-9.69-2.13-.81-4.55-.83-6.84-.37-.98.19-1.94.48-2.85.83-2.82,1.07-5.12,2.77-5.95,4.36.29.29.36.43.65.72,2.15-4.09,11.56-5.67,14-.93.79,1.58,1,3.95,1,8.11v14c0,1.51.14,2.58-1.79,4.31-4.38,3.95-10.98,2.66-10.91-4.52.14-6.53,8.9-12.34,10.91-17.8l-1-.29c-2.22,6.75-15.07,9.11-15.14,18.37,0,9.33,13.06,9.98,17.94,3.95.22,2.15,2.22,3.95,4.52,3.95h3.95v-1.29c-2.15,0-3.23-1.72-3.23-6.96Z"/>
        </g>
      </g>
      <path class="cls-1" d="M114.5,103.03c-6.29,2.51-11.82,6.49-17.84,9.55-3.61,1.86-7.46,3.26-11.45,4.01-10.65,2.16-22.21-1.17-29.87-8.94-3.84-3.8-6.86-8.5-8.31-13.72-4.87-16.97,9.79-31.01,23.61-38.13,0,0-.84.57-.84.57-.47.31-1.2.81-1.68,1.13-3.74,2.24-7.3,4.82-10.47,7.81-7.91,7.3-13.21,17.59-9.98,28.43,2.99,10.15,11.59,18.39,21.71,21.34,7.64,2.27,15.96,1.43,23.27-1.62,2.47-1.03,4.83-2.25,7.18-3.52,4.74-2.56,9.48-5.37,14.67-6.93h0Z"/>
      <path class="cls-1" d="M125.56,158.3c11.48-5.46,23.34-14.91,26.32-27.82,1.18-5.38.39-11.19-2.44-15.97-3.83-6.44-10.52-10.9-17.79-12.58-1.83-.45-3.71-.73-5.61-.82-1.88-.04-3.83.1-5.71.25,0,0-.02-.11-.02-.11,17.14-3.42,36.37,10.19,32.71,28.75-1.97,9.78-9.2,17.61-17.29,23.01-3.19,2.13-6.6,3.93-10.15,5.39l-.04-.1h0Z"/>
    </g>
  </g>
</svg>